<svg xmlns="http://www.w3.org/2000/svg" viewBox="0 0 900 620" role="img" aria-label="Sueño de una tarde dominical en la Alameda Central">
  <defs>
    <linearGradient id="g" x1="0" y1="0" x2="1" y2="1"><stop stop-color="#4b2e83"/><stop offset=".55" stop-color="#f316a7"/><stop offset="1" stop-color="#1d4fa3"/></linearGradient>
    <radialGradient id="r" cx="70%" cy="25%" r="60%"><stop stop-color="#ffffff" stop-opacity=".85"/><stop offset="1" stop-color="#ffffff" stop-opacity="0"/></radialGradient>
  </defs>
  <rect width="900" height="620" rx="34" fill="#fffaf2"/>
  <rect x="42" y="42" width="816" height="536" rx="30" fill="url(#g)" opacity=".92"/>
  <rect x="42" y="42" width="816" height="536" rx="30" fill="url(#r)"/>
  <path d="M80 465 C180 340 260 410 360 280 C470 135 610 260 820 120 L820 578 L80 578 Z" fill="#ffffff" opacity=".22"/>
  <path d="M115 500 C245 370 350 455 470 310 C570 190 685 310 790 230" fill="none" stroke="#fff" stroke-width="20" opacity=".38" stroke-linecap="round"/>
  <circle cx="368" cy="246" r="80" fill="#fff" opacity=".20"/>
  <circle cx="644" cy="332" r="37" fill="#ffffff" opacity=".42"/>
  <text x="74" y="96" font-family="Georgia, serif" font-size="32" font-weight="700" fill="#fff" opacity=".90">Sueño de una tarde dominical en la</text>
  <text x="76" y="535" font-family="Arial, sans-serif" font-size="18" font-weight="700" fill="#fff" opacity=".78">Eco de los Pueblos · referencia visual</text>
</svg>