<svg xmlns="http://www.w3.org/2000/svg" viewBox="0 0 900 620" role="img" aria-label="Obra 10">
      <defs>
        <linearGradient id="bg" x1="0" y1="0" x2="1" y2="1">
          <stop offset="0" stop-color="#3d6873" stop-opacity=".28"/>
          <stop offset=".45" stop-color="#fff8ed"/>
          <stop offset="1" stop-color="#eecb7f" stop-opacity=".30"/>
        </linearGradient>
      </defs>
      
        <rect width="900" height="620" fill="url(#bg)"/>
        <rect x="92" y="80" width="716" height="460" rx="38" fill="#fff8ed"/>
        <path d="M120 125 H780 V495 H120Z" fill="#3d6873" opacity=".28"/>
        <g opacity=".92">
          <path d="M110 90 L250 540" stroke="#a5b77b" stroke-width="28"/><path d="M165 90 L305 540" stroke="#b75f4b" stroke-width="28"/><path d="M220 90 L360 540" stroke="#eecb7f" stroke-width="28"/><path d="M275 90 L415 540" stroke="#3d6873" stroke-width="28"/><path d="M330 90 L470 540" stroke="#a5b77b" stroke-width="28"/><path d="M385 90 L525 540" stroke="#b75f4b" stroke-width="28"/><path d="M440 90 L580 540" stroke="#eecb7f" stroke-width="28"/><path d="M495 90 L635 540" stroke="#3d6873" stroke-width="28"/><path d="M550 90 L690 540" stroke="#a5b77b" stroke-width="28"/><path d="M605 90 L745 540" stroke="#b75f4b" stroke-width="28"/><path d="M660 90 L800 540" stroke="#eecb7f" stroke-width="28"/><path d="M715 90 L855 540" stroke="#3d6873" stroke-width="28"/><path d="M770 90 L910 540" stroke="#a5b77b" stroke-width="28"/><path d="M825 90 L965 540" stroke="#b75f4b" stroke-width="28"/><path d="M880 90 L1020 540" stroke="#eecb7f" stroke-width="28"/>
          <path d="M110 130 H790" stroke="#eecb7f" stroke-width="16" opacity=".75"/><path d="M110 184 H790" stroke="#3d6873" stroke-width="16" opacity=".75"/><path d="M110 238 H790" stroke="#b75f4b" stroke-width="16" opacity=".75"/><path d="M110 292 H790" stroke="#a5b77b" stroke-width="16" opacity=".75"/><path d="M110 346 H790" stroke="#eecb7f" stroke-width="16" opacity=".75"/><path d="M110 400 H790" stroke="#3d6873" stroke-width="16" opacity=".75"/><path d="M110 454 H790" stroke="#b75f4b" stroke-width="16" opacity=".75"/><path d="M110 508 H790" stroke="#a5b77b" stroke-width="16" opacity=".75"/>
        </g>
        <circle cx="450" cy="310" r="88" fill="#fff8ed" opacity=".50"/>
        <path d="M410 310 C430 262 480 262 500 310 C475 365 430 365 410 310Z" fill="#b75f4b"/>
        
      <rect x="28" y="28" width="844" height="564" rx="30" fill="none" stroke="#ffffff" stroke-width="16" opacity=".55"/>
    </svg>