<svg xmlns="http://www.w3.org/2000/svg" width="900" height="650" viewBox="0 0 900 650">
  <defs>
    <linearGradient id="g" x1="0" y1="0" x2="1" y2="1"><stop offset="0" stop-color="#0d1b2a"/><stop offset="1" stop-color="#1883c8"/></linearGradient>
    <filter id="s" x="-20%" y="-20%" width="140%" height="140%"><feDropShadow dx="0" dy="22" stdDeviation="22" flood-color="#09244d" flood-opacity=".22"/></filter>
  </defs>
  <rect width="900" height="650" fill="url(#g)"/>
  <circle cx="760" cy="80" r="210" fill="#fff" opacity=".12"/>
  <circle cx="115" cy="560" r="220" fill="#fff" opacity=".09"/>
  <g transform="translate(290 135) scale(1.06)" filter="url(#s)"><path d="M90 222 C40 152 74 60 150 72 C225 84 252 172 202 226 C170 262 116 258 90 222Z" fill="#101b33"/><path d="M118 210 C92 160 126 102 170 108 C214 114 222 176 190 210" fill="none" stroke="#f6f4ef" stroke-width="14" opacity=".72"/><circle cx="168" cy="154" r="23" fill="#e6399b"/><circle cx="205" cy="108" r="16" fill="#00a3d7"/></g>
  <text x="70" y="535" fill="#ffffff" font-family="Georgia,serif" font-size="38" font-weight="700">Monumento veracruzano</text>
  <text x="72" y="580" fill="#ffffff" font-family="Arial,sans-serif" font-size="22" opacity=".86">Masaru Goji · escultura pública</text>
  <text x="72" y="612" fill="#ffffff" font-family="Arial,sans-serif" font-size="16" opacity=".72">Imagen referencial original para catálogo digital</text>
</svg>