<svg xmlns="http://www.w3.org/2000/svg" width="900" height="650" viewBox="0 0 900 650">
  <defs>
    <linearGradient id="g" x1="0" y1="0" x2="1" y2="1"><stop offset="0" stop-color="#0a2c66"/><stop offset="1" stop-color="#f316a7"/></linearGradient>
    <filter id="s" x="-20%" y="-20%" width="140%" height="140%"><feDropShadow dx="0" dy="22" stdDeviation="22" flood-color="#09244d" flood-opacity=".22"/></filter>
  </defs>
  <rect width="900" height="650" fill="url(#g)"/>
  <circle cx="760" cy="80" r="210" fill="#fff" opacity=".12"/>
  <circle cx="115" cy="560" r="220" fill="#fff" opacity=".09"/>
  <g transform="translate(290 135) scale(1.06)" filter="url(#s)"><path d="M80 220 C48 128 112 48 190 92 C268 135 222 240 124 252" fill="#5b3419"/><path d="M110 220 C92 154 130 92 185 116 C235 138 205 218 138 226" fill="none" stroke="#d49b61" stroke-width="10" opacity=".75"/><circle cx="190" cy="120" r="18" fill="#f5c16c"/><path d="M58 70 L86 118 L32 119 Z" fill="#0f4ea0"/><path d="M230 70 L260 118 L206 119 Z" fill="#e6399b"/></g>
  <text x="70" y="535" fill="#ffffff" font-family="Georgia,serif" font-size="38" font-weight="700">Relieves del Totonacapan</text>
  <text x="72" y="580" fill="#ffffff" font-family="Arial,sans-serif" font-size="22" opacity=".86">Lorenzo Rivera · pieza referencial</text>
  <text x="72" y="612" fill="#ffffff" font-family="Arial,sans-serif" font-size="16" opacity=".72">Imagen referencial original para catálogo digital</text>
</svg>